<?xml version="1.0" encoding="UTF-8"?> <svg xmlns="http://www.w3.org/2000/svg" width="122" height="122" viewBox="0 0 122 122" fill="none"> <path d="M90.6601 4.47053L90.8103 3.9944L90.6601 4.47054C104.213 8.74442 114.62 20.187 118.183 33.8911C123.436 54.1025 122.819 78.8374 113.661 97.8529L114.111 98.0699L113.661 97.8529C110.867 103.655 105.666 108.85 99.669 112.806C93.673 116.761 86.9257 119.446 81.0846 120.261C75.1789 121.085 70.1596 121.379 66.6186 121.467C64.8482 121.511 63.4477 121.504 62.4912 121.486C62.013 121.476 61.6458 121.465 61.3989 121.455C61.2754 121.45 61.182 121.446 61.1198 121.443L61.0502 121.439L61.0332 121.439L61.0292 121.438L61.0283 121.438L61.0282 121.438L60.9998 121.437L60.9713 121.438L60.9712 121.438L60.9704 121.438L60.9664 121.439L60.9494 121.439L60.8797 121.443C60.8175 121.446 60.7241 121.45 60.6007 121.455C60.3537 121.465 59.9865 121.476 59.5083 121.486C58.5518 121.504 57.1513 121.511 55.381 121.467C51.8399 121.379 46.8207 121.085 40.9149 120.261C35.0738 119.446 28.3265 116.761 22.3305 112.806C16.3332 108.85 11.1329 103.655 8.33871 97.853C-0.818975 78.8374 -1.4368 54.1024 3.81783 33.8912L3.81784 33.8911C7.37982 20.187 17.7874 8.74443 31.3403 4.47054L31.3404 4.47053C40.7697 1.49651 51.0923 0.566203 60.9998 0.500011C70.9082 0.566203 81.2307 1.49651 90.6601 4.47053Z" fill="white" stroke="#ECECEC"></path> <mask id="mask0_317_106" style="mask-type:luminance" maskUnits="userSpaceOnUse" x="0" y="0" width="122" height="122"> <path d="M90.6601 4.47053L90.8103 3.9944L90.6601 4.47054C104.213 8.74442 114.62 20.187 118.183 33.8911C123.436 54.1025 122.819 78.8374 113.661 97.8529L114.111 98.0699L113.661 97.8529C110.867 103.655 105.666 108.85 99.669 112.806C93.673 116.761 86.9257 119.446 81.0846 120.261C75.1789 121.085 70.1596 121.379 66.6186 121.467C64.8482 121.511 63.4477 121.504 62.4912 121.486C62.013 121.476 61.6458 121.465 61.3989 121.455C61.2754 121.45 61.182 121.446 61.1198 121.443L61.0502 121.439L61.0332 121.439L61.0292 121.438L61.0283 121.438L61.0282 121.438L60.9998 121.437L60.9713 121.438L60.9712 121.438L60.9704 121.438L60.9664 121.439L60.9494 121.439L60.8797 121.443C60.8175 121.446 60.7241 121.45 60.6007 121.455C60.3537 121.465 59.9865 121.476 59.5083 121.486C58.5518 121.504 57.1513 121.511 55.381 121.467C51.8399 121.379 46.8207 121.085 40.9149 120.261C35.0738 119.446 28.3265 116.761 22.3305 112.806C16.3332 108.85 11.1329 103.655 8.33871 97.853C-0.818975 78.8374 -1.4368 54.1024 3.81783 33.8912L3.81784 33.8911C7.37982 20.187 17.7874 8.74443 31.3403 4.47054L31.3404 4.47053C40.7697 1.49651 51.0923 0.566203 60.9998 0.500011C70.9082 0.566203 81.2307 1.49651 90.6601 4.47053Z" fill="white" stroke="white"></path> </mask> <g mask="url(#mask0_317_106)"> <rect x="37" y="39.7059" width="47.0588" height="47.0588" fill="#73D9FD"></rect> <rect x="37" y="39.7059" width="47.0588" height="16.4706" fill="#6C00BC"></rect> <rect x="44.0588" y="35" width="4.70588" height="12.9412" fill="#6C00BC"></rect> <rect x="72.2941" y="35" width="4.70588" height="12.9412" fill="#6C00BC"></rect> <path fill-rule="evenodd" clip-rule="evenodd" d="M48.7647 39.7059V47.9412H44.0588V39.7059H48.7647Z" fill="#020E53"></path> <path fill-rule="evenodd" clip-rule="evenodd" d="M77 39.7059V47.9412H72.2941V39.7059H77Z" fill="#020E53"></path> <rect x="44.0588" y="67.9412" width="11.7647" height="11.7647" fill="#020E53"></rect> </g> </svg> 