<?xml version="1.0" encoding="UTF-8"?> <svg xmlns="http://www.w3.org/2000/svg" width="122" height="122" viewBox="0 0 122 122" fill="none"> <g clip-path="url(#clip0_28_27)"> <path d="M3.81783 33.8911C7.37981 20.187 17.7874 8.74442 31.3403 4.47053C40.7696 1.49651 51.0923 0.566192 60.9998 0.5C70.9082 0.566192 81.2307 1.4965 90.6601 4.47052C104.213 8.7444 114.62 20.187 118.183 33.8911C123.436 54.1025 122.819 78.8374 113.661 97.8529C110.867 103.655 105.666 108.85 99.669 112.806C93.673 116.761 86.9257 119.446 81.0846 120.261C75.1789 121.085 70.1596 121.379 66.6186 121.467C64.8482 121.511 63.4477 121.504 62.4912 121.486C62.013 121.476 61.6458 121.465 61.3989 121.455C61.2754 121.45 61.182 121.446 61.1198 121.443L61.0502 121.439H61.0332L61.0292 121.438H61.0282L60.9998 121.437L60.9713 121.438L60.9664 121.439H60.9494L60.8797 121.443C60.8175 121.446 60.7241 121.45 60.6007 121.455C60.3537 121.465 59.9865 121.476 59.5083 121.486C58.5518 121.504 57.1513 121.511 55.381 121.467C51.8399 121.379 46.8207 121.085 40.9149 120.261C35.0738 119.446 28.3265 116.761 22.3305 112.806C16.3332 108.85 11.1329 103.655 8.3387 97.8529C-0.818982 78.8374 -1.4368 54.1023 3.81783 33.8911Z" fill="white"></path> <path d="M3.33391 33.7653L3.81783 33.8911M3.81783 33.8911C7.37981 20.187 17.7874 8.74442 31.3403 4.47053C40.7696 1.49651 51.0923 0.566192 60.9998 0.5C70.9082 0.566192 81.2307 1.4965 90.6601 4.47052M3.81783 33.8911C-1.4368 54.1023 -0.818982 78.8374 8.3387 97.8529C11.1329 103.655 16.3332 108.85 22.3305 112.806C28.3265 116.761 35.0738 119.446 40.9149 120.261C46.8207 121.085 51.8399 121.379 55.381 121.467C57.1513 121.511 58.5518 121.504 59.5083 121.486C59.9865 121.476 60.3537 121.465 60.6007 121.455C60.7241 121.45 60.8175 121.446 60.8797 121.443L60.9494 121.439H60.9664L60.9713 121.438L60.9998 121.437L61.0282 121.438H61.0292L61.0332 121.439H61.0502L61.1198 121.443C61.182 121.446 61.2754 121.45 61.3989 121.455C61.6458 121.465 62.013 121.476 62.4912 121.486C63.4477 121.504 64.8482 121.511 66.6186 121.467C70.1596 121.379 75.1789 121.085 81.0846 120.261C86.9257 119.446 93.673 116.761 99.669 112.806C105.666 108.85 110.867 103.655 113.661 97.8529C122.819 78.8374 123.436 54.1025 118.183 33.8911C114.62 20.187 104.213 8.7444 90.6601 4.47052M90.6601 4.47052L90.8103 3.99439" stroke="#ECECEC"></path> <mask id="mask0_28_27" style="mask-type:luminance" maskUnits="userSpaceOnUse" x="0" y="0" width="122" height="122"> <path d="M3.81783 33.8911C7.37981 20.187 17.7874 8.74442 31.3403 4.47053C40.7696 1.49651 51.0923 0.566192 60.9998 0.5C70.9082 0.566192 81.2307 1.4965 90.6601 4.47052C104.213 8.7444 114.62 20.187 118.183 33.8911C123.436 54.1025 122.819 78.8374 113.661 97.8529C110.867 103.655 105.666 108.85 99.669 112.806C93.673 116.761 86.9257 119.446 81.0846 120.261C75.1789 121.085 70.1596 121.379 66.6186 121.467C64.8482 121.511 63.4477 121.504 62.4912 121.486C62.013 121.476 61.6458 121.465 61.3989 121.455C61.2754 121.45 61.182 121.446 61.1198 121.443L61.0502 121.439H61.0332L61.0292 121.438H61.0282L60.9998 121.437L60.9713 121.438L60.9664 121.439H60.9494L60.8797 121.443C60.8175 121.446 60.7241 121.45 60.6007 121.455C60.3537 121.465 59.9865 121.476 59.5083 121.486C58.5518 121.504 57.1513 121.511 55.381 121.467C51.8399 121.379 46.8207 121.085 40.9149 120.261C35.0738 119.446 28.3265 116.761 22.3305 112.806C16.3332 108.85 11.1329 103.655 8.3387 97.8529C-0.818982 78.8374 -1.4368 54.1023 3.81783 33.8911Z" fill="white"></path> <path d="M3.33391 33.7653L3.81783 33.8911M3.81783 33.8911C7.37981 20.187 17.7874 8.74442 31.3403 4.47053C40.7696 1.49651 51.0923 0.566192 60.9998 0.5C70.9082 0.566192 81.2307 1.4965 90.6601 4.47052M3.81783 33.8911C-1.4368 54.1023 -0.818982 78.8374 8.3387 97.8529C11.1329 103.655 16.3332 108.85 22.3305 112.806C28.3265 116.761 35.0738 119.446 40.9149 120.261C46.8207 121.085 51.8399 121.379 55.381 121.467C57.1513 121.511 58.5518 121.504 59.5083 121.486C59.9865 121.476 60.3537 121.465 60.6007 121.455C60.7241 121.45 60.8175 121.446 60.8797 121.443L60.9494 121.439H60.9664L60.9713 121.438L60.9998 121.437L61.0282 121.438H61.0292L61.0332 121.439H61.0502L61.1198 121.443C61.182 121.446 61.2754 121.45 61.3989 121.455C61.6458 121.465 62.013 121.476 62.4912 121.486C63.4477 121.504 64.8482 121.511 66.6186 121.467C70.1596 121.379 75.1789 121.085 81.0846 120.261C86.9257 119.446 93.673 116.761 99.669 112.806C105.666 108.85 110.867 103.655 113.661 97.8529C122.819 78.8374 123.436 54.1025 118.183 33.8911C114.62 20.187 104.213 8.7444 90.6601 4.47052M90.6601 4.47052L90.8103 3.99439" stroke="white"></path> </mask> <g mask="url(#mask0_28_27)"> <path fill-rule="evenodd" clip-rule="evenodd" d="M60.4576 44.6478C60.0538 44.6171 59.6486 44.687 59.2784 44.8514C58.9074 45.0134 58.5831 45.266 58.3352 45.586C58.0873 45.906 57.9236 46.2831 57.8593 46.6827L49.0756 96.1531C49.018 96.4807 49.0286 96.8167 49.1068 97.14C49.1849 97.4634 49.3289 97.7671 49.5298 98.0322C49.7693 98.3446 50.0774 98.5978 50.4302 98.7724C50.9114 98.9941 51.4509 99.056 51.9697 98.9488C52.4885 98.8416 52.9594 98.571 53.3132 98.1767L58.474 92.4104L87.689 61.1088C87.9699 60.8174 88.1731 60.4601 88.2801 60.0697C88.387 59.6793 88.3943 59.2683 88.3012 58.8743C88.2102 58.4796 88.0229 58.1137 87.7558 57.8092C87.4887 57.5047 87.1502 57.2712 86.7707 57.1296L83.5619 55.9641L61.5925 45.0274C61.2515 44.809 60.8615 44.6785 60.4576 44.6478Z" fill="#73D9FD"></path> <path fill-rule="evenodd" clip-rule="evenodd" d="M62.2778 78.4287C62.6818 78.4566 63.0866 78.3839 63.4556 78.2171C63.8254 78.0525 64.148 77.7977 64.3938 77.476C64.6395 77.1544 64.8006 76.7762 64.8622 76.3761L73.3089 26.8471C73.3642 26.5191 73.3513 26.1832 73.271 25.8604C73.1906 25.5376 73.0445 25.2348 72.8418 24.9711C72.6002 24.6603 72.2905 24.4092 71.9364 24.2371C71.4538 24.0186 70.9139 23.9605 70.3958 24.0712C69.8777 24.1819 69.4087 24.4557 69.0575 24.8524L63.9347 30.6553L34.935 62.1535C34.6561 62.4468 34.4553 62.8055 34.351 63.1966C34.2467 63.5877 34.2422 63.9988 34.3381 64.3921C34.4316 64.7861 34.6215 65.1508 34.8907 65.4535C35.1599 65.7562 35.4999 65.9873 35.8804 66.1263L39.7319 67.4957L61.1403 78.0568C61.4829 78.2729 61.8737 78.4007 62.2778 78.4287Z" fill="#6A00BC"></path> <path fill-rule="evenodd" clip-rule="evenodd" d="M63.4556 78.2171C63.0866 78.384 62.6818 78.4567 62.2778 78.4287C61.8737 78.4007 61.4829 78.273 61.1403 78.0568L53.0015 74.0418L57.8592 46.6827C57.9236 46.2831 58.0873 45.906 58.3352 45.586C58.5831 45.266 58.9074 45.0134 59.2783 44.8514C59.6486 44.687 60.0537 44.6171 60.4576 44.6478C60.8615 44.6785 61.2514 44.809 61.5925 45.0274L69.5342 48.9809L64.8622 76.3762C64.8006 76.7762 64.6395 77.1544 64.3938 77.4761C64.148 77.7977 63.8254 78.0525 63.4556 78.2171Z" fill="#020E53"></path> </g> </g> <defs> <clipPath id="clip0_28_27"> <rect width="122" height="122" fill="white"></rect> </clipPath> </defs> </svg> 