<?xml version="1.0" encoding="UTF-8"?> <svg xmlns="http://www.w3.org/2000/svg" width="122" height="122" viewBox="0 0 122 122" fill="none"> <path d="M3.33392 33.7653L3.81784 33.8911C7.37982 20.187 17.7874 8.74443 31.3403 4.47054L31.3404 4.47053C40.7697 1.49651 51.0923 0.566203 60.9998 0.500011C70.9082 0.566203 81.2307 1.49651 90.6601 4.47053L90.8103 3.9944L90.6601 4.47054C104.213 8.74442 114.62 20.187 118.183 33.8911C123.436 54.1025 122.819 78.8374 113.661 97.8529C110.867 103.655 105.666 108.85 99.669 112.806C93.673 116.761 86.9257 119.446 81.0846 120.261C75.1789 121.085 70.1596 121.379 66.6186 121.467C64.8482 121.511 63.4477 121.504 62.4912 121.486C62.013 121.476 61.6458 121.465 61.3989 121.455C61.2754 121.45 61.182 121.446 61.1198 121.443L61.0502 121.439L61.0332 121.439L61.0292 121.438L61.0283 121.438L61.0282 121.438L60.9998 121.437L60.9713 121.438L60.9712 121.438L60.9704 121.438L60.9664 121.439L60.9494 121.439L60.8797 121.443C60.8175 121.446 60.7241 121.45 60.6007 121.455C60.3537 121.465 59.9865 121.476 59.5083 121.486C58.5518 121.504 57.1513 121.511 55.381 121.467C51.8399 121.379 46.8207 121.085 40.9149 120.261C35.0738 119.446 28.3265 116.761 22.3305 112.806C16.3332 108.85 11.1329 103.655 8.33871 97.8529C-0.818975 78.8374 -1.4368 54.1024 3.81783 33.8912L3.33392 33.7653Z" fill="white" stroke="#ECECEC"></path> <mask id="mask0_233_105" style="mask-type:luminance" maskUnits="userSpaceOnUse" x="0" y="0" width="122" height="122"> <path d="M3.33392 33.7653L3.81784 33.8911C7.37982 20.187 17.7874 8.74443 31.3403 4.47054L31.3404 4.47053C40.7697 1.49651 51.0923 0.566203 60.9998 0.500011C70.9082 0.566203 81.2307 1.49651 90.6601 4.47053L90.8103 3.9944L90.6601 4.47054C104.213 8.74442 114.62 20.187 118.183 33.8911C123.436 54.1025 122.819 78.8374 113.661 97.8529C110.867 103.655 105.666 108.85 99.669 112.806C93.673 116.761 86.9257 119.446 81.0846 120.261C75.1789 121.085 70.1596 121.379 66.6186 121.467C64.8482 121.511 63.4477 121.504 62.4912 121.486C62.013 121.476 61.6458 121.465 61.3989 121.455C61.2754 121.45 61.182 121.446 61.1198 121.443L61.0502 121.439L61.0332 121.439L61.0292 121.438L61.0283 121.438L61.0282 121.438L60.9998 121.437L60.9713 121.438L60.9712 121.438L60.9704 121.438L60.9664 121.439L60.9494 121.439L60.8797 121.443C60.8175 121.446 60.7241 121.45 60.6007 121.455C60.3537 121.465 59.9865 121.476 59.5083 121.486C58.5518 121.504 57.1513 121.511 55.381 121.467C51.8399 121.379 46.8207 121.085 40.9149 120.261C35.0738 119.446 28.3265 116.761 22.3305 112.806C16.3332 108.85 11.1329 103.655 8.33871 97.8529C-0.818975 78.8374 -1.4368 54.1024 3.81783 33.8912L3.33392 33.7653Z" fill="white" stroke="white"></path> </mask> <g mask="url(#mask0_233_105)"> <path fill-rule="evenodd" clip-rule="evenodd" d="M32.5625 72.1277C37.6968 62.2364 43.34 57.2908 49.4921 57.2908C58.7204 57.2908 66.7288 70.5777 73.8404 70.5777C80.952 70.5777 82.4399 66.3578 90.5312 66.3578V89.4375H32.5625V72.1277Z" fill="#73D9FD"></path> <path fill-rule="evenodd" clip-rule="evenodd" d="M57.4062 39.1567L75.625 32.5625V45.7509L57.4062 39.1567Z" fill="#73D9FD"></path> <path fill-rule="evenodd" clip-rule="evenodd" d="M32.5625 61.2985C40.3903 61.2985 41.9825 70.3253 49.9292 70.3253C57.8759 70.3253 62.1113 49.8723 74.8716 49.8723C84.997 49.8723 90.5312 62.947 90.5312 66.3578C90.5312 67.182 90.5312 83.6675 90.5312 83.6675H32.5625C32.5625 83.6675 32.5625 61.2985 32.5625 61.2985Z" fill="#6C00BC"></path> <path fill-rule="evenodd" clip-rule="evenodd" d="M32.5625 83.6759V89.4458H90.5312V83.6759H32.5625ZM59.5301 61.6182C56.3494 59.2292 53.0093 57.2991 49.4921 57.2991C45.5724 57.2991 41.8593 59.3066 38.3529 63.3218C39.3518 64.0591 40.2625 64.9263 41.1744 65.7947C43.5531 68.0599 45.9408 70.3336 49.9292 70.3336C53.4343 70.3336 56.2174 66.3545 59.3284 61.9065C59.3955 61.8106 59.4627 61.7145 59.5301 61.6182Z" fill="#020E53"></path> </g> </svg> 