<?xml version="1.0" encoding="UTF-8"?> <svg xmlns="http://www.w3.org/2000/svg" width="123" height="123" viewBox="0 0 123 123" fill="none"> <path fill-rule="evenodd" clip-rule="evenodd" d="M91.071 4.00515C81.5463 1.00105 71.137 0.0663575 61.1748 0C51.2135 0.0663575 40.8042 1.00105 31.2794 4.00515C17.5145 8.34587 6.95687 19.9603 3.34348 33.8622C-1.94867 54.2178 -1.33613 79.1502 7.91086 98.3512C13.6177 110.201 29.0737 119.443 40.963 121.102C52.8523 122.761 61.1748 122.287 61.1748 122.287C61.1748 122.287 69.4972 122.761 81.3865 121.102C93.2758 119.443 108.732 110.201 114.439 98.3512C123.687 79.1502 124.298 54.2178 119.007 33.8622C115.393 19.9603 104.836 8.34587 91.071 4.00515Z" fill="white"></path> <path d="M33.7787 37.1403V47.3444C33.7787 49.0787 35.1424 50.4847 36.8247 50.4847H70.973V34H36.8247C35.1424 34 33.7787 35.4059 33.7787 37.1403Z" fill="#6C00BC"></path> <path d="M50.1998 78.9036H33.7808C33.3469 78.9036 32.996 79.2662 32.996 79.7135V87.9402C32.996 88.3868 33.3469 88.75 33.7808 88.75H50.1998C50.6327 88.75 50.9853 88.3868 50.9853 87.9402V79.7135C50.9853 79.2662 50.6327 78.9036 50.1998 78.9036Z" fill="#6C00BC"></path> <path d="M83.6217 40.1819V38.1217H79.6241V35.2283C79.6241 34.5504 79.0909 34 78.4328 34H73.6283V50.4847H78.4328C79.0909 50.4847 79.6241 49.9342 79.6241 49.2566V46.3636H83.6217V44.3028H95.5797V40.1819H83.6217Z" fill="#020E53"></path> <path d="M64.9683 53.33H39.9323C37.023 53.33 33.9043 54.991 31.4565 57.5365H27V76.1643H35.8968V76.1452H52.3758C53.4863 76.1452 54.3868 75.2155 54.3868 74.0698C54.3868 72.9234 53.4863 71.9945 52.3758 71.9945H48.9809C48.4248 71.9945 47.9748 71.5319 47.9748 70.9588C47.9748 70.3887 48.4248 69.9237 48.9801 69.9237L54.0381 69.9222C55.1501 69.9237 56.0499 68.9925 56.0499 67.8484C56.0499 66.7018 55.1495 65.7745 54.0381 65.7745H48.9809C48.4248 65.7745 47.9748 65.3105 47.9748 64.7373C47.9748 64.1657 48.4248 63.7007 48.9809 63.7007H55.8209C56.9339 63.7007 57.8349 62.7703 57.8349 61.6269C57.8349 60.4788 56.9339 59.5515 55.8209 59.5515H48.9801C48.4248 59.5515 47.9748 59.0874 47.9748 58.5134C47.9748 57.9403 48.4248 57.477 48.9801 57.477H64.9683C66.0788 57.4777 66.9806 56.5495 66.9806 55.4039C66.9806 54.2591 66.0788 53.3286 64.9683 53.33Z" fill="#73D9FD"></path> </svg> 